<svg id="visual" viewBox="0 0 900 600" width="900" height="600" xmlns="http://www.w3.org/2000/svg" xmlns:xlink="http://www.w3.org/1999/xlink" version="1.1"><g><g transform="translate(668 351)"><path d="M0 -62.8L59.7 -19.4L36.9 50.8L-36.9 50.8L-59.7 -19.4Z" fill="#297EA6"></path></g><g transform="translate(418 351)"><path d="M0 -49L46.6 -15.1L28.8 39.6L-28.8 39.6L-46.6 -15.1Z" fill="#297EA6"></path></g><g transform="translate(603 49)"><path d="M0 -60L57.1 -18.5L35.3 48.5L-35.3 48.5L-57.1 -18.5Z" fill="#297EA6"></path></g><g transform="translate(743 471)"><path d="M0 -58L55.2 -17.9L34.1 46.9L-34.1 46.9L-55.2 -17.9Z" fill="#297EA6"></path></g><g transform="translate(184 111)"><path d="M0 -59L56.1 -18.2L34.7 47.7L-34.7 47.7L-56.1 -18.2Z" fill="#297EA6"></path></g><g transform="translate(8 427)"><path d="M0 -41L39 -12.7L24.1 33.2L-24.1 33.2L-39 -12.7Z" fill="#297EA6"></path></g><g transform="translate(313 39)"><path d="M0 -26L24.7 -8L15.3 21L-15.3 21L-24.7 -8Z" fill="#297EA6"></path></g><g transform="translate(208 570)"><path d="M0 -19L18.1 -5.9L11.2 15.4L-11.2 15.4L-18.1 -5.9Z" fill="#297EA6"></path></g><g transform="translate(33 30)"><path d="M0 -59L56.1 -18.2L34.7 47.7L-34.7 47.7L-56.1 -18.2Z" fill="#297EA6"></path></g><g transform="translate(248 301)"><path d="M0 -34L32.3 -10.5L20 27.5L-20 27.5L-32.3 -10.5Z" fill="#297EA6"></path></g><g transform="translate(849 58)"><path d="M0 -22L20.9 -6.8L12.9 17.8L-12.9 17.8L-20.9 -6.8Z" fill="#297EA6"></path></g></g></svg>